<svg xmlns="http://www.w3.org/2000/svg" xmlns:xlink="http://www.w3.org/1999/xlink" width="2000" zoomAndPan="magnify" viewBox="0 0 1500 1499.999933" height="2000" preserveAspectRatio="xMidYMid meet" version="1.0"><defs><clipPath id="335ca0651d"><path d="M 150 150 L 1350 150 L 1350 1350 L 150 1350 Z M 150 150 " clip-rule="nonzero"/></clipPath></defs><g clip-path="url(#335ca0651d)"><path fill="#e6e6e6" d="M 1350 749.988281 C 1350 759.808594 1349.757812 769.621094 1349.277344 779.429688 C 1348.796875 789.238281 1348.074219 799.027344 1347.109375 808.800781 C 1346.148438 818.570312 1344.945312 828.3125 1343.507812 838.027344 C 1342.066406 847.742188 1340.386719 857.414062 1338.472656 867.042969 C 1336.554688 876.671875 1334.40625 886.25 1332.019531 895.777344 C 1329.632812 905.300781 1327.015625 914.761719 1324.164062 924.160156 C 1321.3125 933.554688 1318.234375 942.878906 1314.925781 952.121094 C 1311.617188 961.367188 1308.085938 970.527344 1304.328125 979.597656 C 1300.570312 988.671875 1296.589844 997.644531 1292.394531 1006.523438 C 1288.195312 1015.398438 1283.78125 1024.167969 1279.152344 1032.828125 C 1274.523438 1041.488281 1269.683594 1050.027344 1264.636719 1058.449219 C 1259.589844 1066.871094 1254.335938 1075.167969 1248.882812 1083.332031 C 1243.425781 1091.496094 1237.773438 1099.519531 1231.925781 1107.40625 C 1226.074219 1115.296875 1220.035156 1123.035156 1213.804688 1130.625 C 1207.578125 1138.214844 1201.164062 1145.648438 1194.570312 1152.925781 C 1187.976562 1160.199219 1181.207031 1167.308594 1174.265625 1174.253906 C 1167.320312 1181.195312 1160.210938 1187.964844 1152.933594 1194.558594 C 1145.660156 1201.152344 1138.226562 1207.566406 1130.636719 1213.796875 C 1123.046875 1220.023438 1115.304688 1226.0625 1107.417969 1231.914062 C 1099.53125 1237.761719 1091.507812 1243.414062 1083.34375 1248.871094 C 1075.175781 1254.324219 1066.882812 1259.578125 1058.460938 1264.625 C 1050.039062 1269.675781 1041.496094 1274.511719 1032.835938 1279.140625 C 1024.179688 1283.769531 1015.410156 1288.183594 1006.53125 1292.382812 C 997.65625 1296.582031 988.683594 1300.558594 979.609375 1304.316406 C 970.539062 1308.074219 961.378906 1311.605469 952.132812 1314.914062 C 942.886719 1318.222656 933.566406 1321.300781 924.171875 1324.152344 C 914.773438 1327.003906 905.3125 1329.621094 895.789062 1332.007812 C 886.261719 1334.394531 876.683594 1336.542969 867.054688 1338.460938 C 857.421875 1340.375 847.75 1342.054688 838.039062 1343.496094 C 828.324219 1344.9375 818.582031 1346.136719 808.808594 1347.101562 C 799.039062 1348.0625 789.25 1348.785156 779.441406 1349.265625 C 769.632812 1349.746094 759.820312 1349.988281 750 1349.988281 C 740.179688 1349.988281 730.367188 1349.746094 720.558594 1349.265625 C 710.75 1348.785156 700.960938 1348.0625 691.191406 1347.101562 C 681.417969 1346.136719 671.675781 1344.9375 661.960938 1343.496094 C 652.25 1342.054688 642.578125 1340.375 632.945312 1338.460938 C 623.316406 1336.542969 613.738281 1334.394531 604.210938 1332.007812 C 594.6875 1329.621094 585.226562 1327.003906 575.828125 1324.152344 C 566.433594 1321.300781 557.113281 1318.222656 547.867188 1314.914062 C 538.621094 1311.605469 529.460938 1308.074219 520.390625 1304.316406 C 511.316406 1300.558594 502.34375 1296.582031 493.46875 1292.382812 C 484.589844 1288.183594 475.820312 1283.769531 467.164062 1279.140625 C 458.503906 1274.511719 449.960938 1269.675781 441.539062 1264.625 C 433.117188 1259.578125 424.820312 1254.324219 416.65625 1248.871094 C 408.492188 1243.414062 400.46875 1237.761719 392.582031 1231.914062 C 384.691406 1226.0625 376.953125 1220.023438 369.363281 1213.796875 C 361.773438 1207.566406 354.339844 1201.152344 347.0625 1194.558594 C 339.789062 1187.964844 332.679688 1181.195312 325.734375 1174.253906 C 318.792969 1167.308594 312.023438 1160.199219 305.429688 1152.925781 C 298.835938 1145.648438 292.421875 1138.214844 286.195312 1130.625 C 279.964844 1123.035156 273.925781 1115.296875 268.074219 1107.410156 C 262.226562 1099.519531 256.574219 1091.496094 251.117188 1083.332031 C 245.664062 1075.167969 240.410156 1066.871094 235.363281 1058.449219 C 230.3125 1050.027344 225.476562 1041.488281 220.847656 1032.828125 C 216.21875 1024.167969 211.804688 1015.398438 207.605469 1006.523438 C 203.40625 997.644531 199.429688 988.671875 195.671875 979.597656 C 191.914062 970.527344 188.382812 961.367188 185.074219 952.121094 C 181.765625 942.878906 178.6875 933.554688 175.835938 924.160156 C 172.984375 914.761719 170.367188 905.300781 167.980469 895.777344 C 165.59375 886.25 163.445312 876.671875 161.527344 867.042969 C 159.613281 857.414062 157.933594 847.742188 156.492188 838.027344 C 155.054688 828.3125 153.851562 818.570312 152.890625 808.800781 C 151.925781 799.027344 151.203125 789.238281 150.722656 779.429688 C 150.242188 769.621094 150 759.808594 150 749.988281 C 150 740.167969 150.242188 730.355469 150.722656 720.546875 C 151.203125 710.742188 151.925781 700.953125 152.890625 691.179688 C 153.851562 681.40625 155.054688 671.664062 156.492188 661.949219 C 157.933594 652.238281 159.613281 642.566406 161.527344 632.933594 C 163.445312 623.304688 165.59375 613.726562 167.980469 604.199219 C 170.367188 594.675781 172.984375 585.214844 175.835938 575.820312 C 178.6875 566.421875 181.765625 557.101562 185.074219 547.855469 C 188.382812 538.609375 191.914062 529.449219 195.671875 520.378906 C 199.429688 511.308594 203.40625 502.332031 207.605469 493.457031 C 211.804688 484.578125 216.21875 475.8125 220.847656 467.152344 C 225.476562 458.492188 230.3125 449.949219 235.363281 441.527344 C 240.410156 433.105469 245.664062 424.8125 251.117188 416.648438 C 256.574219 408.484375 262.226562 400.457031 268.074219 392.570312 C 273.925781 384.683594 279.964844 376.945312 286.195312 369.351562 C 292.421875 361.761719 298.835938 354.328125 305.429688 347.054688 C 312.023438 339.777344 318.792969 332.667969 325.734375 325.726562 C 332.679688 318.78125 339.789062 312.011719 347.066406 305.417969 C 354.339844 298.824219 361.773438 292.414062 369.363281 286.183594 C 376.953125 279.953125 384.691406 273.914062 392.582031 268.066406 C 400.46875 262.214844 408.492188 256.5625 416.65625 251.105469 C 424.820312 245.652344 433.117188 240.398438 441.539062 235.351562 C 449.960938 230.304688 458.5 225.464844 467.160156 220.835938 C 475.820312 216.207031 484.589844 211.792969 493.464844 207.597656 C 502.34375 203.398438 511.316406 199.417969 520.390625 195.660156 C 529.460938 191.902344 538.621094 188.371094 547.867188 185.0625 C 557.113281 181.753906 566.433594 178.675781 575.828125 175.824219 C 585.226562 172.976562 594.6875 170.355469 604.210938 167.96875 C 613.738281 165.585938 623.316406 163.433594 632.945312 161.519531 C 642.578125 159.601562 652.25 157.925781 661.960938 156.484375 C 671.675781 155.042969 681.417969 153.839844 691.191406 152.878906 C 700.960938 151.917969 710.75 151.195312 720.558594 150.710938 C 730.367188 150.230469 740.179688 149.988281 750 149.988281 C 759.820312 149.988281 769.632812 150.230469 779.441406 150.710938 C 789.25 151.195312 799.039062 151.917969 808.808594 152.878906 C 818.582031 153.839844 828.324219 155.042969 838.039062 156.484375 C 847.75 157.925781 857.421875 159.601562 867.054688 161.519531 C 876.683594 163.433594 886.261719 165.585938 895.789062 167.96875 C 905.3125 170.355469 914.773438 172.976562 924.171875 175.824219 C 933.566406 178.675781 942.886719 181.753906 952.132812 185.0625 C 961.378906 188.371094 970.539062 191.902344 979.609375 195.660156 C 988.683594 199.417969 997.65625 203.398438 1006.53125 207.597656 C 1015.410156 211.792969 1024.179688 216.207031 1032.835938 220.835938 C 1041.496094 225.464844 1050.039062 230.304688 1058.460938 235.351562 C 1066.882812 240.398438 1075.175781 245.652344 1083.34375 251.109375 C 1091.507812 256.5625 1099.53125 262.214844 1107.417969 268.066406 C 1115.304688 273.914062 1123.046875 279.953125 1130.636719 286.183594 C 1138.226562 292.414062 1145.660156 298.824219 1152.933594 305.417969 C 1160.210938 312.011719 1167.320312 318.78125 1174.265625 325.726562 C 1181.207031 332.667969 1187.976562 339.777344 1194.570312 347.054688 C 1201.164062 354.328125 1207.578125 361.761719 1213.804688 369.351562 C 1220.035156 376.945312 1226.074219 384.683594 1231.925781 392.570312 C 1237.773438 400.457031 1243.425781 408.480469 1248.882812 416.648438 C 1254.335938 424.8125 1259.589844 433.105469 1264.636719 441.527344 C 1269.683594 449.949219 1274.523438 458.492188 1279.152344 467.152344 C 1283.78125 475.8125 1288.195312 484.578125 1292.394531 493.457031 C 1296.589844 502.332031 1300.570312 511.308594 1304.328125 520.378906 C 1308.085938 529.449219 1311.617188 538.609375 1314.925781 547.855469 C 1318.234375 557.101562 1321.3125 566.421875 1324.164062 575.820312 C 1327.015625 585.214844 1329.632812 594.675781 1332.019531 604.199219 C 1334.40625 613.726562 1336.554688 623.304688 1338.472656 632.933594 C 1340.386719 642.566406 1342.066406 652.238281 1343.507812 661.949219 C 1344.945312 671.664062 1346.148438 681.40625 1347.109375 691.179688 C 1348.074219 700.949219 1348.796875 710.742188 1349.277344 720.546875 C 1349.757812 730.355469 1350 740.167969 1350 749.988281 Z M 1350 749.988281 " fill-opacity="1" fill-rule="nonzero"/></g><path fill="#1a1617" d="M 564.539062 848.570312 C 562.460938 850.207031 559.402344 850.863281 551.53125 853.597656 C 510.21875 867.914062 469.128906 884.851562 428.253906 904.851562 C 402.460938 917.421875 404.972656 912.832031 393.828125 938.953125 C 365.082031 1005.835938 337.761719 1075.78125 317.652344 1142.996094 C 385.300781 1215.890625 471.203125 1271.628906 568.035156 1302.996094 C 604.429688 1312.832031 642.242188 1320.917969 680.820312 1327.585938 C 701.585938 1329.992188 722.789062 1331.410156 744.210938 1331.628906 L 757.433594 1331.628906 C 778.308594 1331.300781 798.855469 1329.992188 819.183594 1327.585938 C 857.652344 1320.917969 895.574219 1312.832031 931.96875 1302.996094 C 1028.800781 1271.628906 1114.59375 1215.890625 1182.351562 1142.996094 C 1162.242188 1075.78125 1134.917969 1005.835938 1106.175781 938.953125 C 1095.027344 912.832031 1097.542969 917.421875 1071.640625 904.855469 C 1030.875 884.855469 989.78125 867.914062 948.472656 853.597656 C 942.898438 851.628906 939.839844 850.753906 937.652344 849.882812 L 937.105469 848.570312 C 929.238281 835.015625 919.945312 822.449219 909.347656 810.644531 C 959.511719 814.144531 1000.273438 801.683594 1025.847656 770.753906 C 1050.546875 740.699219 1051.96875 718.40625 1053.28125 682.011719 C 1055.792969 610.644531 1050.328125 533.925781 1030.65625 462.449219 C 1011.53125 392.613281 978.964844 327.804688 927.269531 277.96875 C 877.761719 230.316406 819.945312 192.722656 750 192.722656 C 700.710938 192.722656 657.980469 201.792969 627.816406 249.554688 C 598.089844 245.726562 581.914062 258.953125 562.132812 277.96875 C 510.4375 327.804688 477.871094 392.613281 458.746094 462.449219 C 439.074219 533.925781 433.609375 610.644531 436.121094 682.011719 C 437.433594 718.40625 438.746094 740.699219 463.554688 770.753906 C 490.875 803.871094 535.683594 815.78125 590.65625 809.773438 L 591.3125 809.773438 C 581.148438 821.355469 572.296875 834.363281 564.535156 848.570312 Z M 564.539062 848.570312 " fill-opacity="1" fill-rule="nonzero"/><path fill="#3d3d3d" d="M 590.65625 809.878906 C 601.476562 798.296875 614.375 787.476562 628.800781 777.203125 L 636.339844 742.230469 C 610.21875 711.847656 590.546875 671.191406 580.710938 624.742188 C 560.929688 625.179688 540.054688 602.121094 531.96875 569.117188 C 525.410156 542.886719 524.972656 521.683594 532.296875 508.242188 C 544.753906 485.398438 567.050781 499.609375 575.902344 516.546875 C 584.101562 447.257812 613.5 387.804688 654.703125 351.300781 C 684.539062 384.960938 719.839844 412.832031 766.285156 417.96875 C 855.136719 427.804688 902.132812 459.390625 923.554688 511.847656 C 933.609375 497.203125 952.953125 487.585938 964.320312 508.242188 C 971.53125 521.683594 971.09375 542.886719 964.648438 569.117188 C 956.996094 600.152344 938.089844 622.449219 919.402344 624.527344 C 909.785156 669.445312 891.203125 708.898438 866.394531 738.953125 L 865.847656 742.230469 L 873.828125 779.0625 C 886.285156 787.476562 898.746094 798.078125 908.800781 810.863281 C 959.183594 814.472656 1000.164062 802.011719 1025.847656 770.972656 C 1050.546875 740.917969 1051.96875 718.625 1053.28125 682.230469 C 1055.792969 610.863281 1050.328125 534.035156 1030.65625 462.558594 C 1011.53125 392.722656 978.964844 327.914062 927.269531 278.1875 C 877.761719 230.535156 819.945312 192.832031 750 192.832031 C 700.710938 192.832031 657.980469 202.011719 627.816406 249.664062 C 598.089844 245.835938 581.914062 259.171875 562.132812 278.1875 C 510.4375 327.914062 477.871094 392.722656 458.746094 462.558594 C 439.074219 534.035156 433.609375 610.863281 436.121094 682.230469 C 437.433594 718.625 438.746094 740.917969 463.554688 770.972656 C 490.875 804.089844 535.683594 816 590.65625 809.882812 Z M 590.65625 809.878906 " fill-opacity="1" fill-rule="nonzero"/><path fill="#f6d5b8" d="M 923.554688 511.847656 C 933.609375 497.203125 952.953125 487.585938 964.320312 508.242188 C 971.53125 521.683594 971.09375 542.886719 964.644531 569.117188 C 956.996094 600.152344 938.089844 622.449219 919.402344 624.527344 C 909.78125 669.445312 891.203125 708.898438 866.394531 738.953125 L 865.847656 742.230469 L 873.5 777.3125 L 872.84375 777.203125 C 873.5 779.28125 874.15625 781.246094 874.699219 783.214844 L 875.027344 784.417969 C 877.652344 794.035156 880.164062 804.199219 882.351562 815.019531 C 897.542969 902.121094 866.394531 983.652344 829.671875 1068.132812 C 809.34375 1089.773438 778.855469 1106.492188 751.09375 1105.289062 C 722.898438 1106.492188 691.75 1089.226562 671.53125 1066.929688 C 637.324219 988.351562 608.144531 912.175781 616.886719 831.628906 C 619.507812 814.691406 623.226562 798.734375 627.269531 784.417969 L 628.800781 777.203125 L 636.339844 742.230469 C 610.21875 711.847656 590.546875 671.191406 580.710938 624.746094 C 560.929688 625.179688 540.054688 602.121094 531.96875 569.117188 C 525.410156 542.886719 524.972656 521.683594 532.296875 508.242188 C 544.753906 485.398438 567.050781 499.609375 575.902344 516.546875 C 584.101562 447.257812 613.5 387.804688 654.699219 351.300781 C 684.535156 384.964844 719.835938 412.832031 766.285156 417.96875 C 855.136719 427.804688 902.132812 459.390625 923.554688 511.847656 Z M 923.554688 511.847656 " fill-opacity="1" fill-rule="nonzero"/><path fill="#e6c6aa" d="M 579.183594 617.3125 C 575.246094 599.171875 573.171875 580.808594 572.734375 562.339844 C 572.40625 550.425781 572.84375 538.625 573.9375 526.710938 C 572.953125 525.398438 571.96875 524.089844 570.765625 522.777344 C 567.050781 518.734375 560.273438 513.488281 554.15625 513.925781 C 549.566406 514.363281 546.613281 518.078125 544.753906 521.574219 C 536.996094 535.5625 542.132812 559.0625 546.285156 573.378906 C 549.890625 585.617188 556.230469 598.296875 565.519531 607.695312 C 569.128906 611.410156 573.9375 615.125 579.183594 617.3125 Z M 919.726562 617.3125 C 923.664062 599.171875 925.738281 580.808594 926.175781 562.339844 C 926.503906 550.425781 926.066406 538.625 924.972656 526.710938 C 925.957031 525.398438 926.941406 524.089844 928.144531 522.777344 C 931.859375 518.734375 938.636719 513.488281 944.753906 513.925781 C 949.347656 514.363281 952.296875 518.078125 954.265625 521.574219 C 961.914062 535.5625 956.777344 559.0625 952.625 573.378906 C 949.019531 585.617188 942.679688 598.296875 933.390625 607.695312 C 929.78125 611.410156 925.082031 615.125 919.726562 617.3125 Z M 919.726562 617.3125 " fill-opacity="1" fill-rule="nonzero"/><path fill="#e6c6aa" d="M 636.339844 742.230469 Z M 873.5 777.3125 L 865.847656 742.230469 L 866.394531 738.953125 C 835.355469 776.546875 794.589844 799.390625 750 799.390625 C 706.722656 799.390625 667.050781 777.859375 636.339844 742.230469 L 634.15625 752.175781 C 646.941406 769.445312 661.585938 783.105469 677.871094 793.816406 C 699.835938 808.132812 724.648438 817.09375 751.75 822.011719 C 779.839844 827.148438 810.328125 827.914062 842.351562 825.945312 C 850.65625 825.398438 849.347656 823.980469 851.53125 832.175781 C 878.089844 936.328125 832.84375 1106.164062 672.515625 1068.023438 C 692.734375 1089.773438 723.335938 1106.492188 751.09375 1105.289062 C 778.855469 1106.492188 809.347656 1089.769531 829.671875 1068.132812 C 869.457031 976.546875 906.503906 877.3125 873.5 777.3125 Z M 873.5 777.3125 " fill-opacity="1" fill-rule="nonzero"/><path fill="#e6c6aa" d="M 923.554688 511.847656 C 902.132812 459.390625 855.136719 427.804688 766.285156 417.96875 C 719.835938 412.832031 684.539062 384.960938 654.699219 351.300781 C 613.5 387.804688 584.101562 447.257812 575.902344 516.4375 C 599.617188 467.476562 618.308594 411.300781 653.5 376.765625 C 699.183594 484.851562 854.480469 417.09375 923.554688 511.847656 Z M 923.554688 511.847656 " fill-opacity="1" fill-rule="nonzero"/><path fill="#383032" d="M 937.105469 848.570312 C 942.570312 860.480469 947.269531 872.722656 950.984375 885.289062 C 954.699219 897.859375 957.433594 910.863281 959.074219 924.199219 C 959.511719 927.914062 960.054688 929.988281 959.945312 931.957031 C 959.945312 933.816406 959.183594 935.671875 957.105469 938.734375 C 952.953125 945.070312 948.035156 950.863281 942.242188 956.4375 C 936.449219 961.902344 929.890625 967.039062 922.679688 971.957031 L 948.691406 999.714844 L 974.8125 1027.476562 L 862.789062 1170.425781 L 750.875 1313.378906 L 638.855469 1170.425781 L 526.832031 1027.476562 L 552.953125 999.714844 L 578.964844 971.957031 C 571.75 967.039062 565.191406 961.902344 559.402344 956.4375 C 553.71875 950.863281 548.691406 945.070312 544.539062 938.734375 C 542.460938 935.671875 541.695312 933.816406 541.695312 931.957031 C 541.585938 929.988281 542.132812 927.914062 542.570312 924.199219 C 544.210938 910.863281 546.941406 897.859375 550.65625 885.289062 C 554.375 872.722656 559.074219 860.480469 564.539062 848.570312 C 572.625 833.816406 581.804688 820.371094 592.515625 808.351562 C 603.117188 796.328125 615.140625 785.945312 628.800781 777.203125 C 600.058594 864.199219 621.476562 944.851562 654.59375 1026.820312 C 687.707031 1108.898438 732.625 1192.394531 750.875 1285.289062 C 769.019531 1192.394531 814.046875 1108.898438 847.378906 1026.929688 C 880.710938 944.851562 902.242188 864.304688 873.5 777.3125 C 886.832031 787.585938 898.746094 798.515625 909.347656 810.425781 C 919.949219 822.230469 929.238281 834.90625 937.105469 848.570312 Z M 937.105469 848.570312 " fill-opacity="1" fill-rule="nonzero"/><path fill="#ffffff" d="M 750.875 1285.289062 C 765.957031 1207.914062 799.617188 1137.09375 829.671875 1068.132812 C 809.347656 1089.769531 778.855469 1106.492188 751.09375 1105.289062 C 723.335938 1106.492188 692.734375 1089.769531 672.515625 1068.023438 C 672.1875 1067.695312 671.859375 1067.257812 671.53125 1066.929688 C 701.585938 1136.21875 735.574219 1207.476562 750.875 1285.289062 Z M 750.875 1285.289062 " fill-opacity="1" fill-rule="nonzero"/></svg>