<svg xmlns="http://www.w3.org/2000/svg" xmlns:xlink="http://www.w3.org/1999/xlink" width="2000" zoomAndPan="magnify" viewBox="0 0 1500 1499.999933" height="2000" preserveAspectRatio="xMidYMid meet" version="1.0"><defs><clipPath id="3af0c67a69"><path d="M 187.089844 726 L 1312.839844 726 L 1312.839844 1250 L 187.089844 1250 Z M 187.089844 726 " clip-rule="nonzero"/></clipPath></defs><rect x="-150" width="1800" fill="#ffffff" y="-149.999993" height="1799.99992" fill-opacity="1"/><rect x="-150" width="1800" fill="#ffffff" y="-149.999993" height="1799.99992" fill-opacity="1"/><g clip-path="url(#3af0c67a69)"><path fill="#000000" d="M 948.898438 726.65625 C 889.683594 773.253906 815.121094 801.148438 734.105469 801.148438 C 655.101562 801.148438 582.179688 774.644531 523.703125 730.097656 C 332.863281 760.945312 187.089844 926.414062 187.089844 1125.984375 C 187.089844 1347.527344 366.660156 1203.5 588.171875 1203.5 L 911.734375 1203.5 C 1133.257812 1203.5 1312.839844 1347.527344 1312.839844 1125.984375 C 1312.839844 917.007812 1152.984375 745.410156 948.898438 726.65625 Z M 948.898438 726.65625 " fill-opacity="1" fill-rule="nonzero"/></g><path fill="#000000" d="M 734.105469 754.464844 C 900.277344 754.464844 1035.457031 619.257812 1035.457031 453.0625 C 1035.457031 286.878906 900.277344 151.671875 734.105469 151.671875 C 567.933594 151.671875 432.742188 286.878906 432.742188 453.0625 C 432.753906 619.257812 567.945312 754.464844 734.105469 754.464844 Z M 734.105469 754.464844 " fill-opacity="1" fill-rule="nonzero"/></svg>