<svg xmlns="http://www.w3.org/2000/svg" xmlns:xlink="http://www.w3.org/1999/xlink" width="2000" zoomAndPan="magnify" viewBox="0 0 1500 1499.999933" height="2000" preserveAspectRatio="xMidYMid meet" version="1.0"><defs><clipPath id="61091b7059"><path d="M 169.5 189 L 1330.5 189 L 1330.5 1350 L 169.5 1350 Z M 169.5 189 " clip-rule="nonzero"/></clipPath><clipPath id="18181cb78c"><path d="M 169.5 150 L 1330.5 150 L 1330.5 1311 L 169.5 1311 Z M 169.5 150 " clip-rule="nonzero"/></clipPath></defs><g clip-path="url(#61091b7059)"><path fill="#efefef" d="M 1272.089844 903.191406 C 1306.867188 893.347656 1330.261719 862.308594 1330.261719 825.910156 L 1330.261719 712.960938 C 1330.261719 676.175781 1304.863281 643.902344 1269.695312 635.71875 L 1198.320312 617.886719 C 1191.375 597.773438 1183.304688 578.359375 1174.078125 559.792969 L 1210.675781 499.070312 C 1231.402344 467.921875 1227.15625 426.039062 1200.597656 399.480469 L 1120.308594 319.1875 C 1093.671875 292.59375 1051.753906 288.386719 1022.957031 307.761719 L 959.996094 345.707031 C 941.390625 336.519531 921.972656 328.414062 901.863281 321.464844 L 884.414062 252.292969 C 876.734375 215.929688 844.113281 189.527344 806.828125 189.527344 L 693.878906 189.527344 C 657.75 189.527344 626.710938 213.113281 616.058594 250.402344 L 598.648438 321.429688 C 578.421875 328.335938 559.007812 336.40625 540.554688 345.59375 L 478.328125 308.070312 C 446.484375 288.425781 405.988281 292.941406 379.546875 319.34375 L 300.105469 399.480469 C 274.4375 425.152344 269.304688 464.949219 288.140625 497.101562 L 326.472656 559.90625 C 316.976562 578.898438 308.832031 598.277344 302.113281 617.964844 L 232.246094 635.449219 C 196.039062 643.25 169.789062 675.867188 169.789062 712.960938 L 169.789062 825.910156 C 169.789062 862.15625 193.414062 893.191406 230.703125 903.730469 L 302.035156 921.140625 C 308.753906 940.980469 316.898438 960.398438 326.433594 979.273438 L 287.636719 1043.3125 C 269.304688 1074.578125 274.4375 1114.378906 300.105469 1140.046875 L 379.742188 1219.683594 C 404.5625 1244.503906 443.859375 1250.101562 477.75 1231.804688 L 540.824219 1193.78125 C 559.777344 1203.160156 579.117188 1211.152344 598.6875 1217.789062 L 616.675781 1291.402344 C 626.710938 1326.453125 657.75 1350 693.878906 1350 L 806.824219 1350 C 844.113281 1350 876.734375 1323.636719 883.914062 1289.433594 L 901.863281 1217.714844 C 921.277344 1211.074219 940.617188 1203.046875 959.726562 1193.664062 L 1023.765625 1232.304688 C 1055.03125 1250.488281 1094.675781 1245.273438 1120.152344 1219.875 L 1200.597656 1140.046875 C 1227.15625 1113.492188 1231.402344 1071.609375 1212.179688 1042.851562 L 1174.15625 979.351562 C 1183.34375 960.898438 1191.449219 941.484375 1198.398438 921.179688 Z M 1272.089844 903.191406 " fill-opacity="1" fill-rule="nonzero"/></g><g clip-path="url(#18181cb78c)"><path fill="#ffffff" d="M 1272.089844 863.660156 C 1306.867188 853.816406 1330.261719 822.78125 1330.261719 786.382812 L 1330.261719 673.433594 C 1330.261719 636.648438 1304.863281 604.375 1269.695312 596.191406 L 1198.320312 578.359375 C 1191.375 558.246094 1183.304688 538.832031 1174.078125 520.261719 L 1210.675781 459.542969 C 1231.402344 428.390625 1227.15625 386.507812 1200.597656 359.953125 L 1120.308594 279.660156 C 1093.671875 253.0625 1051.753906 248.855469 1022.957031 268.234375 L 959.996094 306.179688 C 941.390625 296.992188 921.972656 288.886719 901.863281 281.9375 L 884.414062 212.765625 C 876.734375 176.402344 844.117188 150 806.828125 150 L 693.878906 150 C 657.75 150 626.714844 173.585938 616.058594 210.875 L 598.648438 281.902344 C 578.421875 288.808594 559.007812 296.878906 540.554688 306.066406 L 478.328125 268.546875 C 446.484375 248.898438 405.992188 253.414062 379.546875 279.816406 L 300.105469 359.953125 C 274.4375 385.621094 269.304688 425.421875 288.140625 457.574219 L 326.472656 520.378906 C 316.976562 539.371094 308.832031 558.75 302.113281 578.4375 L 232.246094 595.921875 C 196.039062 603.71875 169.789062 636.339844 169.789062 673.433594 L 169.789062 786.382812 C 169.789062 822.628906 193.414062 853.664062 230.703125 864.203125 L 302.035156 881.613281 C 308.753906 901.453125 316.898438 920.867188 326.433594 939.746094 L 287.636719 1003.785156 C 269.304688 1035.050781 274.4375 1074.847656 300.105469 1100.519531 L 379.742188 1180.152344 C 404.5625 1204.972656 443.859375 1210.570312 477.75 1192.273438 L 540.824219 1154.253906 C 559.777344 1163.632812 579.117188 1171.621094 598.6875 1178.261719 L 616.675781 1251.875 C 626.710938 1286.925781 657.75 1310.472656 693.878906 1310.472656 L 806.824219 1310.472656 C 844.113281 1310.472656 876.734375 1284.109375 883.914062 1249.90625 L 901.863281 1178.183594 C 921.277344 1171.546875 940.617188 1163.515625 959.726562 1154.136719 L 1023.765625 1192.777344 C 1055.03125 1210.957031 1094.675781 1205.746094 1120.152344 1180.347656 L 1200.597656 1100.519531 C 1227.15625 1073.960938 1231.402344 1032.078125 1212.179688 1003.320312 L 1174.15625 939.824219 C 1183.34375 921.371094 1191.449219 901.953125 1198.398438 881.652344 Z M 1272.089844 863.660156 " fill-opacity="1" fill-rule="nonzero"/></g><path fill="#2196f3" d="M 1255.949219 653.863281 L 1151.503906 627.757812 C 1141.0625 589.238281 1126.042969 552.675781 1105.808594 518.746094 L 1161.296875 426.691406 C 1166.515625 418.851562 1165.207031 408.410156 1158.683594 401.890625 L 1078.390625 321.597656 C 1071.863281 315.066406 1061.414062 313.757812 1053.582031 318.984375 L 961.542969 374.464844 C 927.597656 354.238281 891.035156 339.226562 852.515625 328.773438 L 826.410156 224.988281 C 824.449219 215.839844 815.964844 209.304688 806.824219 209.304688 L 693.890625 209.304688 C 684.105469 209.304688 676.261719 215.839844 673.648438 224.988281 L 648.199219 328.773438 C 609.023438 339.226562 572.46875 354.238281 539.175781 374.464844 L 447.128906 318.984375 C 438.652344 313.757812 428.195312 315.066406 421.679688 321.597656 L 342.03125 401.890625 C 335.503906 408.410156 334.195312 418.847656 338.773438 426.691406 L 394.902344 518.746094 C 374.671875 552.675781 359.003906 589.238281 349.210938 627.757812 L 244.765625 653.863281 C 235.625 655.824219 229.097656 664.316406 229.097656 673.449219 L 229.097656 786.382812 C 229.097656 796.183594 235.625 804.007812 244.765625 806.621094 L 349.210938 832.074219 C 359.003906 871.25 374.671875 907.808594 394.902344 941.085938 L 338.773438 1033.796875 C 334.199219 1041.621094 335.503906 1052.074219 342.03125 1058.59375 L 421.679688 1138.234375 C 428.195312 1144.765625 438.652344 1146.074219 447.128906 1141.5 L 539.175781 1086.019531 C 572.46875 1105.59375 609.023438 1121.273438 648.195312 1131.058594 L 673.648438 1235.515625 C 676.261719 1244.644531 684.105469 1251.164062 693.890625 1251.164062 L 806.824219 1251.164062 C 815.960938 1251.164062 824.449219 1244.644531 826.410156 1235.515625 L 852.515625 1131.058594 C 891.035156 1121.273438 927.597656 1105.59375 961.542969 1086.019531 L 1053.582031 1141.5 C 1061.414062 1146.074219 1071.863281 1144.765625 1078.386719 1138.234375 L 1158.679688 1058.59375 C 1165.207031 1052.074219 1166.515625 1041.621094 1161.296875 1033.796875 L 1105.808594 941.085938 C 1126.042969 907.808594 1141.0625 871.25 1151.5 832.074219 L 1255.949219 806.621094 C 1265.085938 804.007812 1270.96875 796.183594 1270.96875 786.382812 L 1270.96875 673.449219 C 1270.96875 664.316406 1265.089844 655.824219 1255.949219 653.863281 Z M 750.03125 1023.996094 C 588.136719 1023.996094 456.269531 892.128906 456.269531 730.234375 C 456.269531 567.707031 588.136719 435.839844 750.03125 435.839844 C 912.582031 435.839844 1044.441406 567.707031 1044.441406 730.234375 C 1044.441406 892.128906 912.582031 1023.996094 750.03125 1023.996094 Z M 750.03125 1023.996094 " fill-opacity="1" fill-rule="nonzero"/><path fill="#0c5baa" d="M 888.421875 798.78125 L 847.304688 780.5 C 820.527344 804.011719 786.582031 818.371094 750.03125 818.371094 C 713.476562 818.371094 680.183594 804.011719 653.417969 780.5 L 612.289062 798.78125 C 586.183594 810.527344 564.636719 830.769531 551.585938 854.929688 C 592.703125 920.863281 666.476562 965.25 750.03125 965.25 C 834.242188 965.25 908.011719 920.863281 949.136719 854.929688 C 936.074219 830.769531 914.535156 810.527344 888.421875 798.78125 Z M 888.421875 798.78125 " fill-opacity="1" fill-rule="nonzero"/><path fill="#0c5baa" d="M 750.238281 772.707031 C 810.25 772.707031 858.898438 716.050781 858.898438 646.164062 C 858.898438 576.28125 810.25 519.621094 750.238281 519.621094 C 690.222656 519.621094 641.566406 576.28125 641.566406 646.164062 C 641.566406 716.050781 690.222656 772.707031 750.238281 772.707031 Z M 750.238281 772.707031 " fill-opacity="1" fill-rule="nonzero"/></svg>